<svg width="17" height="16" viewBox="0 0 17 16" fill="none" xmlns="http://www.w3.org/2000/svg">
<g clip-path="url(#clip0_30_14)">
<path d="M9.06702 0.43L11.057 4.461C11.169 4.689 11.387 4.847 11.637 4.883L16.087 5.53C16.2293 5.55096 16.363 5.61126 16.4728 5.70411C16.5827 5.79697 16.6645 5.91867 16.7089 6.0555C16.7533 6.19234 16.7585 6.33885 16.7241 6.47853C16.6897 6.6182 16.6169 6.74548 16.514 6.846L13.294 9.984C13.2045 10.0714 13.1376 10.1792 13.0989 10.2982C13.0602 10.4171 13.051 10.5437 13.072 10.667L13.832 15.098C13.8562 15.2399 13.8402 15.3857 13.7858 15.519C13.7315 15.6523 13.6409 15.7677 13.5245 15.8523C13.408 15.9368 13.2702 15.9871 13.1266 15.9975C12.9831 16.0079 12.8394 15.9779 12.712 15.911L8.73202 13.819C8.62127 13.7609 8.49807 13.7306 8.37302 13.7306C8.24796 13.7306 8.12477 13.7609 8.01402 13.819L4.03402 15.911C3.90661 15.9776 3.76313 16.0074 3.61973 15.9969C3.47634 15.9864 3.33872 15.936 3.2224 15.8515C3.10608 15.767 3.01567 15.6517 2.96136 15.5185C2.90705 15.3854 2.891 15.2398 2.91502 15.098L3.67502 10.667C3.6963 10.5437 3.6872 10.417 3.64852 10.298C3.60984 10.179 3.54273 10.0712 3.45302 9.984L0.233017 6.846C0.130095 6.74541 0.0573385 6.61805 0.0229604 6.47831C-0.0114177 6.33856 -0.00604874 6.19198 0.0384613 6.05513C0.0829714 5.91827 0.16485 5.79658 0.274856 5.70379C0.384862 5.611 0.518615 5.5508 0.661017 5.53L5.11002 4.883C5.23362 4.86484 5.35098 4.81695 5.452 4.74345C5.55303 4.66995 5.6347 4.57302 5.69002 4.461L7.68002 0.43C7.74405 0.300795 7.84291 0.192047 7.96544 0.116019C8.08798 0.0399913 8.22931 -0.000293732 8.37352 -0.000293732C8.51772 -0.000293732 8.65906 0.0399913 8.78159 0.116019C8.90412 0.192047 9.00298 0.300795 9.06702 0.43Z" fill="#FC7614"/>
</g>
<defs>
<clipPath id="clip0_30_14">
<rect width="17" height="16" fill="white"/>
</clipPath>
</defs>
</svg>
